<svg width="32" height="33" viewBox="0 0 32 33" fill="none" xmlns="http://www.w3.org/2000/svg">
<path d="M19.9258 5.5C21.622 5.95522 23.1686 6.84857 24.4104 8.09039C25.6522 9.33221 26.5456 10.8788 27.0008 12.575" stroke="#101828" stroke-width="2" stroke-linecap="round" stroke-linejoin="round"/>
<path d="M18.8867 9.3625C19.9069 9.63344 20.8373 10.1692 21.5836 10.9156C22.33 11.662 22.8658 12.5924 23.1367 13.6125" stroke="#101828" stroke-width="2" stroke-linecap="round" stroke-linejoin="round"/>
<path d="M11.5625 16.1C12.5915 18.225 14.3098 19.9389 16.4375 20.9625C16.5944 21.0368 16.768 21.069 16.9412 21.0558C17.1143 21.0427 17.2811 20.9847 17.425 20.8875L20.55 18.8C20.6881 18.7064 20.8476 18.6492 21.0137 18.6339C21.1799 18.6186 21.3471 18.6456 21.5 18.7125L27.35 21.225C27.5499 21.3082 27.717 21.4548 27.8254 21.6423C27.9338 21.8298 27.9776 22.0477 27.95 22.2625C27.7646 23.7097 27.0582 25.0397 25.9631 26.0037C24.8679 26.9677 23.459 27.4997 22 27.5C17.4913 27.5 13.1673 25.7089 9.97918 22.5208C6.79107 19.3327 5 15.0087 5 10.5C5.00033 9.04099 5.53227 7.6321 6.49628 6.53694C7.4603 5.44178 8.79033 4.73541 10.2375 4.55C10.4523 4.5224 10.6702 4.56619 10.8577 4.6746C11.0452 4.78302 11.1918 4.95006 11.275 5.15L13.7875 11.0125C13.8528 11.1629 13.8802 11.3271 13.8671 11.4906C13.854 11.6541 13.8009 11.8119 13.7125 11.95L11.625 15.125C11.5321 15.2686 11.4775 15.4336 11.4666 15.6043C11.4556 15.775 11.4887 15.9457 11.5625 16.1V16.1Z" stroke="#101828" stroke-width="2" stroke-linecap="round" stroke-linejoin="round"/>
</svg>
